<?xml version="1.0" standalone="no"?>
<!DOCTYPE svg PUBLIC "-//W3C//DTD SVG 20010904//EN"
 "http://www.w3.org/TR/2001/REC-SVG-20010904/DTD/svg10.dtd">
<svg version="1.0" xmlns="http://www.w3.org/2000/svg"
 width="2560.000000pt" height="2560.000000pt" viewBox="0 0 2560.000000 2560.000000"
 preserveAspectRatio="xMidYMid meet">
<metadata>
Created by potrace 1.14, written by Peter Selinger 2001-2017
</metadata>
<g transform="translate(0.000000,2560.000000) scale(0.100000,-0.100000)"
fill="#000000" stroke="none">
<path d="M0 12805 l0 -4325 2963 0 2963 0 49 62 c96 121 179 164 459 243 89
25 204 60 256 78 90 30 102 32 225 30 135 -3 272 -16 283 -28 11 -11 -47 -54
-195 -144 -283 -173 -356 -224 -339 -233 8 -5 231 -7 493 -6 l478 3 80 33
c111 46 335 177 335 196 0 12 -39 -3 -200 -79 -169 -80 -200 -91 -200 -76 0
18 83 81 117 87 18 3 86 38 151 77 145 87 245 134 387 180 204 67 448 119 830
177 308 47 477 78 630 116 124 30 153 42 255 100 346 199 611 416 687 559 42
81 68 171 56 198 -9 19 -21 10 -134 -99 -218 -208 -433 -365 -669 -488 -231
-120 -355 -161 -595 -195 -137 -20 -570 -61 -641 -61 l-35 0 47 55 c36 41 59
58 89 66 22 6 47 17 56 25 8 7 30 19 47 25 18 6 32 17 32 25 0 17 -79 19 -164
3 -73 -13 -85 -5 -65 48 12 30 26 44 68 65 30 15 64 36 75 47 37 33 159 107
393 237 331 184 438 247 425 252 -7 2 -27 -1 -44 -7 -94 -33 -105 12 -12 51
21 9 111 47 199 84 88 37 201 86 250 110 l90 42 -82 1 c-45 1 -84 5 -88 11 -3
5 9 17 27 26 49 25 68 44 68 71 0 13 7 26 15 29 12 5 13 10 4 20 -9 11 -7 15
7 20 58 21 84 34 84 43 0 6 -9 11 -21 11 -33 0 -19 32 26 57 22 12 70 32 107
43 76 23 88 34 56 51 -28 14 -67 59 -68 77 0 7 16 44 35 82 43 86 124 327 132
394 6 44 4 49 -11 43 -10 -4 -21 -7 -25 -7 -5 0 -39 -23 -77 -51 -180 -133
-417 -233 -692 -290 -81 -17 -141 -23 -247 -24 -163 0 -167 1 -307 113 -159
127 -345 221 -616 312 -383 128 -868 210 -1239 210 -78 0 -143 4 -143 8 0 12
167 62 410 122 113 28 317 83 454 121 137 38 298 78 360 90 148 28 168 38 85
38 -343 4 -1119 -182 -1438 -344 -143 -72 -191 -73 -155 -3 23 47 202 221 309
301 50 37 123 83 162 103 131 64 392 101 648 91 437 -18 1276 -145 1386 -210
20 -12 60 -50 89 -85 28 -35 61 -67 73 -71 12 -5 61 -14 109 -20 48 -6 122
-21 164 -31 43 -11 81 -20 85 -20 5 0 6 19 3 43 -5 33 -2 47 13 66 16 20 27
23 69 20 140 -8 175 -5 195 20 38 47 22 93 -74 204 -192 222 -192 244 0 71 70
-64 156 -136 189 -160 109 -78 232 -124 332 -124 66 0 92 13 92 46 0 60 -128
246 -315 459 -93 106 -135 167 -135 199 0 9 -13 30 -28 48 -16 18 -32 47 -36
63 -4 17 -30 80 -57 142 -44 98 -52 126 -65 235 -8 68 -35 213 -59 323 -60
273 -139 668 -170 850 -46 274 -49 445 -10 575 32 103 201 420 386 723 153
250 253 371 407 495 96 77 97 78 134 169 73 179 213 386 377 556 102 105 164
150 338 245 62 34 156 91 210 127 l98 65 -5878 0 -5877 0 0 -4325z m7355 -366
c22 -8 40 -18 40 -24 0 -14 -147 -85 -190 -92 -31 -5 -35 -3 -35 16 0 11 -5
21 -12 21 -13 0 -135 -91 -354 -266 -164 -131 -210 -185 -319 -374 -105 -181
-143 -236 -202 -292 -77 -71 -143 -100 -191 -84 -37 12 -171 -72 -427 -269
-256 -197 -594 -518 -919 -873 -193 -211 -194 -200 -5 73 147 213 245 371 342
550 111 206 121 220 182 255 132 75 319 237 660 570 352 344 490 463 688 594
131 87 313 185 377 203 59 17 309 11 365 -8z m-377 -943 c2 -15 -2 -41 -8 -57
-12 -29 -85 -102 -111 -111 -27 -10 -1 -19 139 -48 77 -16 171 -39 208 -52 72
-25 95 -48 48 -48 -55 0 -8 -20 92 -39 120 -23 154 -36 154 -56 0 -19 -32 -19
-93 -1 -26 8 -47 12 -47 10 0 -11 84 -38 347 -115 664 -192 931 -299 1259
-506 l124 -78 -57 -29 c-183 -92 -457 -185 -803 -271 -335 -83 -425 -100 -528
-100 -78 0 -93 -3 -98 -17 -3 -11 -24 -20 -62 -28 -31 -6 -93 -22 -137 -37
-89 -29 -202 -40 -225 -23 -10 8 -11 13 -4 16 6 3 20 11 30 18 17 13 12 15
-41 21 -33 3 -77 12 -99 20 -33 12 -48 12 -110 -1 -213 -44 -630 -220 -910
-383 -210 -122 -262 -149 -303 -157 -58 -11 -38 32 45 95 24 19 45 44 48 59 3
15 10 39 16 54 13 34 152 172 283 279 173 142 214 181 241 227 14 24 56 79 93
121 37 42 88 105 114 140 40 55 110 119 166 151 14 8 13 12 -11 36 -25 26 -36
29 -130 35 -120 8 -108 6 -108 22 0 7 20 23 45 35 47 23 55 36 30 46 -8 3 -15
16 -15 30 0 34 48 61 151 86 88 21 159 48 159 60 0 4 -78 12 -174 17 -96 6
-183 16 -195 22 -31 17 -26 50 22 144 81 158 217 312 356 405 72 48 94 50 99
8z m896 -1753 c69 -34 73 -38 56 -50 -36 -25 -104 -44 -230 -63 -198 -31 -259
-25 -213 22 21 20 265 126 295 127 10 1 51 -16 92 -36z"/>
<path d="M16380 17116 c8 -7 105 -98 215 -201 110 -103 212 -205 227 -227 40
-58 44 -97 20 -187 -49 -183 -94 -259 -177 -301 -45 -23 -64 -25 -195 -28 -80
-2 -194 1 -255 7 -60 5 -111 8 -113 6 -3 -2 58 -34 134 -71 189 -92 296 -167
444 -309 157 -152 184 -172 248 -185 28 -7 54 -16 58 -21 3 -5 -9 -34 -26 -64
-38 -66 -31 -85 31 -85 35 0 42 5 67 41 94 140 114 151 171 103 49 -41 74 -99
75 -172 l1 -63 -66 -62 c-36 -34 -93 -88 -127 -120 -84 -78 -86 -97 -32 -224
61 -141 198 -578 265 -843 76 -301 93 -544 55 -810 -20 -140 -22 -168 -11
-218 31 -141 132 -337 282 -547 125 -175 323 -482 367 -569 75 -148 47 -298
-67 -355 -20 -10 -96 -38 -170 -62 -74 -23 -146 -53 -160 -65 -24 -21 -26 -28
-26 -106 0 -77 3 -90 44 -177 54 -117 62 -166 32 -215 -32 -51 -100 -108 -182
-151 -66 -34 -70 -38 -55 -54 9 -9 37 -27 63 -41 48 -26 91 -88 130 -188 l16
-43 -100 -102 c-163 -164 -174 -190 -127 -294 54 -119 41 -306 -32 -452 -63
-125 -191 -219 -350 -257 -100 -23 -318 -14 -484 20 -339 71 -728 127 -888
126 -210 0 -315 -33 -440 -140 -210 -179 -414 -471 -520 -747 -17 -43 -40
-102 -51 -130 l-21 -53 5475 0 5475 0 0 4325 0 4325 -4617 0 c-3926 0 -4615
-2 -4603 -14z"/>
<path d="M16594 13666 c-138 -29 -313 -86 -421 -136 -76 -35 -223 -124 -223
-134 0 -3 24 3 53 13 148 51 420 101 547 101 140 -1 317 -31 327 -56 9 -23
-37 -80 -107 -134 -143 -110 -248 -182 -298 -205 -43 -21 -56 -33 -75 -72 -25
-53 -32 -56 -144 -74 -83 -12 -91 -25 -40 -62 52 -40 110 -65 186 -82 42 -10
83 -27 100 -41 17 -14 42 -24 59 -24 34 0 44 -16 33 -56 -11 -43 -50 -65 -132
-75 -41 -4 -78 -8 -83 -9 -6 0 -4 -6 3 -12 9 -10 64 -13 204 -13 161 0 197 3
223 17 54 30 58 41 61 172 5 260 2 243 53 287 25 22 61 44 80 49 19 5 48 21
65 34 l29 24 -37 42 -38 42 45 35 c87 68 159 209 139 276 -11 39 -33 50 -161
83 -145 38 -303 41 -448 10z"/>
<path d="M8653 11953 c9 -2 25 -2 35 0 9 3 1 5 -18 5 -19 0 -27 -2 -17 -5z"/>
<path d="M11480 9534 c-108 -29 -224 -95 -340 -193 -91 -77 -98 -81 -170 -81
-56 0 -75 -5 -145 -41 -44 -23 -189 -113 -321 -200 -269 -177 -323 -206 -352
-188 -15 10 -39 3 -138 -40 -162 -71 -240 -88 -468 -101 -435 -24 -450 -26
-1026 -144 l-315 -64 1300 -1 1300 0 120 131 c211 231 446 467 590 591 169
147 235 213 235 238 0 11 -4 19 -9 19 -5 0 -49 -26 -97 -59 -89 -58 -128 -81
-138 -81 -20 0 20 40 106 107 75 58 96 79 82 82 -10 2 -25 12 -32 22 -16 24
-100 25 -182 3z"/>
</g>
</svg>
